<?xml version="1.0" encoding="UTF-8" standalone="no"?>
<!-- Created with Inkscape (http://www.inkscape.org/) -->

<svg
   width="81.165703mm"
   height="35.728909mm"
   viewBox="0 0 81.165703 35.728909"
   version="1.1"
   id="svg920"
   xmlns="http://www.w3.org/2000/svg"
   xmlns:svg="http://www.w3.org/2000/svg">
  <defs
     id="defs917">
    <clipPath
       clipPathUnits="userSpaceOnUse"
       id="clipPath34">
      <path
         d="m 193.11,694.691 h 95.669 v 42.114 H 193.11 Z"
         id="path32" />
    </clipPath>
  </defs>
  <g
     id="layer1"
     transform="translate(-44.417099,-26.635573)">
    <g
       id="g28"
       transform="matrix(0.8484057,0,0,-0.8484057,-119.41895,651.74488)">
      <g
         id="g30"
         clip-path="url(#clipPath34)">
        <g
           id="g36"
           transform="translate(288.7795,715.7487)">
          <path
             d="m 0,0 c 0,-11.629 -21.415,-21.057 -47.831,-21.057 -26.42,0 -47.838,9.428 -47.838,21.057 0,11.628 21.418,21.056 47.838,21.056 C -21.415,21.056 0,11.628 0,0"
             style="fill:#e30613;fill-opacity:1;fill-rule:nonzero;stroke:none"
             id="path38" />
        </g>
        <g
           id="g40"
           transform="translate(243.1499,719.5693)">
          <path
             d="m 0,0 -0.142,-0.106 v 0.181 c 0,0.231 -0.113,0.411 -0.327,0.537 -0.05,0 -3.498,0.003 -3.833,0.004 0,-0.002 0.008,-0.008 0.008,-0.008 0.185,-0.227 0.451,-0.555 0.451,-1.093 0,-0.266 -0.066,-0.583 -0.236,-0.965 -0.616,-1.357 -3.142,-6.013 -3.598,-6.851 0.272,0 2.994,-0.003 2.994,-0.003 0.771,-0.005 1.295,0.33 1.651,1.055 0.633,1.292 2.238,4.368 2.697,5.177 0.305,0.541 0.716,0.858 1.131,0.876 0.237,0.009 0.588,-0.08 0.907,-0.553 l 0.12,-0.229 c 0.094,-0.197 0.198,-0.421 0.396,-0.488 0.139,-0.047 0.325,-0.008 0.55,0.109 0.241,0.412 1.43,2.562 1.638,2.938 C 3.483,1.587 1.885,1.382 0,0"
             style="fill:#ffffff;fill-opacity:1;fill-rule:nonzero;stroke:none"
             id="path42" />
        </g>
        <g
           id="g44"
           transform="translate(230.1614,714.3796)">
          <path
             d="M 0,0 -0.092,0.011 -0.08,0.103 C 0.289,2.256 1.615,4.344 3.221,5.298 3.755,5.608 4.233,5.672 4.572,5.476 4.812,5.339 4.95,5.08 4.946,4.769 4.917,3.8 4.195,2.628 2.966,1.554 1.865,0.593 0.618,-0.061 0,0 M 0.874,5.69 0.867,5.689 c -2.261,-0.541 -4.419,-2.481 -5.02,-4.513 -0.438,-1.282 -0.15,-2.584 0.75,-3.407 1.014,-0.791 2.268,-1.186 3.717,-1.168 2.428,0.04 3.951,0.844 4.656,2.452 C 4.84,-0.999 4.597,-1.136 4.37,-1.263 3.719,-1.635 2.825,-2.144 2.14,-2.186 1.395,-2.236 0.774,-2.075 0.402,-1.732 0.215,-1.59 -0.009,-1.263 -0.077,-0.781 l -0.013,0.09 0.853,0.132 C 3.284,-0.169 6.146,0.273 7.391,2.407 7.95,3.334 7.736,4.647 6.921,5.274 5.405,6.391 2.792,6.289 0.874,5.69"
             style="fill:#ffffff;fill-opacity:1;fill-rule:nonzero;stroke:none"
             id="path46" />
        </g>
        <g
           id="g48"
           transform="translate(202.1107,710.0632)">
          <path
             d="M 0,0 -0.001,0.005 C -0.245,0.802 0.062,1.622 0.844,2.257 3.48,4.427 7.897,3.66 11.152,2.218 L 11.275,2.162 11.176,2.07 C 9.387,0.364 6.952,-1.616 4.01,-1.764 2.481,-1.748 0.546,-1.429 0,0 m 26.618,12.269 -0.167,0.006 0.095,0.136 c 2.973,4.285 6.7,6.554 9.967,6.068 0.931,-0.135 1.543,-0.554 1.727,-1.176 0.214,-0.749 -0.225,-1.686 -1.181,-2.508 -0.703,-0.607 -4.931,-2.7 -10.441,-2.526 m 9.753,7.28 C 31.559,19.063 27.076,16.893 22.668,12.915 l -0.032,-0.027 -0.041,0.004 c -0.813,0.102 -1.49,0.4 -2.075,0.913 -0.314,0.311 -0.451,0.759 -0.451,1.201 0,0.338 0.082,0.674 0.219,0.945 0.77,1.769 2.833,2.168 5.019,2.311 -1.828,0.26 -3.947,-0.026 -5.822,-0.812 -1.193,-0.512 -1.835,-1.38 -1.764,-2.379 0.077,-0.847 0.761,-1.539 2.09,-2.113 0.641,-0.256 1.252,-0.472 1.922,-0.677 l 0.154,-0.048 -0.118,-0.105 C 20.171,10.72 18.71,9.224 17.297,7.776 16.021,6.465 14.697,5.112 13.279,3.826 L 13.242,3.792 13.193,3.807 C 9.49,5.057 4.031,5.69 0.809,3.372 -0.688,2.423 -1.332,1.099 -0.911,-0.174 -0.522,-1.202 0.78,-2.067 1.867,-2.386 7.18,-3.981 12.204,-1.714 15.478,0.472 l 0.042,0.029 0.047,-0.024 c 0.052,-0.026 5.49,-2.528 11.084,-4.793 12.432,-5.034 23.734,-2.895 27.448,-2.194 l 0.182,0.034 c 5.518,1.039 11.535,2.582 18.143,6.779 0.04,0.024 0.088,0.058 0.141,0.093 C 72.386,0.306 72.218,0.216 72.1,0.148 64.661,-3.586 54.912,-4.306 46.353,-4.517 37.055,-4.746 26.815,-1.242 18.029,2.218 l -0.138,0.055 0.113,0.095 c 2.314,2.056 4.094,4.344 5.817,6.556 0.703,0.9 1.428,1.831 2.178,2.734 l 0.025,0.031 0.041,0.002 c 5.644,0.137 9.806,1.018 13.098,2.773 1.497,0.799 2.682,2.234 2.044,3.432 -0.764,1.257 -2.394,1.815 -4.836,1.653"
             style="fill:#ffffff;fill-opacity:1;fill-rule:nonzero;stroke:none"
             id="path50" />
        </g>
        <g
           id="g52"
           transform="translate(248.1016,719.0202)">
          <path
             d="m 0,0 c -0.337,-0.657 -2.123,-4.169 -2.496,-4.989 -0.418,-0.922 -0.319,-1.695 0.288,-2.238 1.087,-0.965 3.408,-0.886 5.173,0.179 l 0.072,0.045 0.048,-0.069 c 0.577,-0.854 1.38,-1.07 3.023,-0.812 -0.021,0.079 -0.036,0.156 -0.036,0.23 0,0.287 0.124,0.566 0.228,0.806 l 0.072,0.172 c 0.154,0.385 2.818,5.71 3.202,6.401 0.334,0.601 0.691,1.073 1.059,1.417 C 9.921,1.15 8.145,1.14 7.562,1.137 7.552,1.137 7.538,1.138 7.527,1.14 7.529,1.14 7.532,1.137 7.532,1.137 6.62,1.137 6.228,0.676 5.856,-0.123 5.553,-0.768 4.165,-3.556 3.176,-5.318 2.7,-6.167 1.967,-6.365 1.52,-6.115 c -0.219,0.119 -0.377,0.354 -0.377,0.667 0,0.177 0.051,0.383 0.175,0.61 0.358,0.648 0.921,1.81 1.412,2.835 0.45,0.927 0.836,1.731 0.973,1.948 C 4.099,0.572 4.505,0.948 4.751,1.141 4.272,1.142 1.448,1.154 1.448,1.154 1.02,1.154 0.388,0.758 0,0"
             style="fill:#ffffff;fill-opacity:1;fill-rule:nonzero;stroke:none"
             id="path54" />
        </g>
        <g
           id="g56"
           transform="translate(263.9034,719.3346)">
          <path
             d="m 0,0 -0.149,-0.07 0.022,0.163 c 0.006,0.05 0.01,0.1 0.01,0.148 0,0.28 -0.122,0.503 -0.336,0.611 h -3.518 c 0.082,-0.114 0.17,-0.282 0.17,-0.505 0,-0.123 -0.029,-0.259 -0.096,-0.408 -1.152,-2.615 -2.144,-4.62 -3.374,-7.011 0,0 -0.414,-0.791 -0.519,-0.994 h 3.815 c 0.114,0.427 0.274,0.796 0.39,1.033 0.52,0.973 2.115,3.939 2.642,4.835 0.558,0.969 1.627,1.302 2.078,1.056 0.082,-0.046 0.226,-0.158 0.226,-0.39 0,-0.113 -0.032,-0.255 -0.124,-0.43 -1.046,-2.215 -1.803,-3.787 -2.981,-6.104 h 3.81 c 0.033,0.232 0.12,0.535 0.18,0.68 0.318,0.783 2.607,4.919 2.782,5.193 0.454,0.756 1.433,1.119 1.916,0.885 C 7.068,-1.369 7.341,-1.571 7.138,-2.096 7.099,-2.197 6.758,-2.894 6.362,-3.701 5.921,-4.606 5.418,-5.63 5.3,-5.902 5.059,-6.461 5.024,-6.927 5.204,-7.283 5.388,-7.658 5.802,-7.924 6.44,-8.08 c 1.363,-0.337 2.75,-0.129 4.017,0.599 0.644,0.343 1.25,0.841 1.677,1.355 -0.08,-0.045 -0.18,-0.095 -0.18,-0.095 -0.459,-0.255 -0.935,-0.519 -1.439,-0.572 -0.462,-0.066 -0.9,0.077 -1.108,0.367 -0.159,0.219 -0.168,0.49 -0.029,0.767 l 1.814,3.776 c 0.511,1.134 0.503,1.984 -0.019,2.458 -0.899,0.813 -3.25,0.419 -5.59,-0.936 L 5.446,-0.439 5.448,-0.281 C 5.454,0.162 5.267,0.519 4.908,0.75 4.01,1.326 2.221,1.053 0,0"
             style="fill:#ffffff;fill-opacity:1;fill-rule:nonzero;stroke:none"
             id="path58" />
        </g>
      </g>
    </g>
  </g>
</svg>
